<?xml version="1.0" encoding="utf-8"?>
<!-- Generator: Adobe Illustrator 16.0.0, SVG Export Plug-In . SVG Version: 6.00 Build 0)  -->
<!DOCTYPE svg PUBLIC "-//W3C//DTD SVG 1.1//EN" "http://www.w3.org/Graphics/SVG/1.1/DTD/svg11.dtd">
<svg version="1.1" id="Layer_1" xmlns="http://www.w3.org/2000/svg" xmlns:xlink="http://www.w3.org/1999/xlink" x="0px" y="0px"
	 width="80px" height="41.001px" viewBox="0 0 80 41.001" enable-background="new 0 0 80 41.001" xml:space="preserve">
<g>
	<path fill-rule="evenodd" clip-rule="evenodd" fill="#8E7567" d="M37.826,17.366l-0.012-0.013l-0.007,0.019l-0.017,0.006
		l0.011,0.01l-3.417,8.93l8.78-3.541l0.009,0.011l0.007-0.018l0.019-0.006l-0.012-0.012l3.037-8.244L37.826,17.366z M57.406,19.517
		l-1.847-0.771c-0.79-7.209-6.53-12.924-13.75-13.676l-0.825-1.977c-0.354-0.847-0.485-1.65-1.383-1.205
		c-0.289,0.143-0.492,0.362-0.869,1.546l-0.705,1.713c-6.856,0.962-12.263,6.41-13.159,13.288l-1.933,0.796
		c-1.183,0.376-1.405,0.579-1.547,0.868c-0.445,0.899,0.36,1.031,1.206,1.385l2.038,0.851c0.083,0.028,0.153,0.05,0.229,0.075
		c0.882,6.936,6.347,12.43,13.272,13.353c0.012,0.037,0.02,0.067,0.033,0.106l0.852,2.037c0.353,0.847,0.484,1.65,1.383,1.208
		c0.288-0.145,0.494-0.366,0.871-1.547l0.725-1.766c7.046-0.818,12.635-6.373,13.524-13.397l1.546-0.636
		c1.183-0.376,1.403-0.581,1.547-0.868C59.056,20.002,58.252,19.87,57.406,19.517 M40.19,30.392c-5.492,0-9.944-4.451-9.944-9.943
		c0-5.491,4.452-9.944,9.944-9.944c5.493,0,9.943,4.453,9.943,9.944C50.133,25.94,45.683,30.392,40.19,30.392"/>
</g>
</svg>
